HIERARCHY
ROOT Hips
{
    OFFSET 0.000000 0.000000 0.000000
    CHANNELS 6 Xposition Yposition Zposition Zrotation Xrotation Yrotation
    JOINT Spine
    {
        OFFSET -0.000000 6.993131 0.000000
        CHANNELS 3 Zrotation Xrotation Yrotation
        JOINT Spine1
        {
            OFFSET -0.000000 20.649729 0.000000
            CHANNELS 3 Zrotation Xrotation Yrotation
            JOINT Neck
            {
                OFFSET -0.000000 20.564924 1.869539
                CHANNELS 3 Zrotation Xrotation Yrotation
                JOINT Head
                {
                    OFFSET -0.000000 11.939490 -1.705642
                    CHANNELS 3 Zrotation Xrotation Yrotation
                    End Site
                    {
                        OFFSET -0.000000 21.320518 0.000000
                    }
                }
            }
            JOINT LeftShoulder
            {
                OFFSET 3.446977 19.850397 -0.038759
                CHANNELS 3 Zrotation Xrotation Yrotation
                JOINT LeftArm
                {
                    OFFSET 7.083611 0.000000 0.000000
                    CHANNELS 3 Zrotation Xrotation Yrotation
                    JOINT LeftForeArm
                    {
                        OFFSET 32.044487 0.000000 0.000000
                        CHANNELS 3 Zrotation Xrotation Yrotation
                        JOINT LeftHand
                        {
                            OFFSET 22.068741 0.000000 0.000000
                            CHANNELS 3 Zrotation Xrotation Yrotation
                            End Site
                            {
                                OFFSET 12.792312 0.000000 0.000000
                            }
                        }
                    }
                }
            }
            JOINT RightShoulder
            {
                OFFSET -3.365844 19.850397 -0.038759
                CHANNELS 3 Zrotation Xrotation Yrotation
                JOINT RightArm
                {
                    OFFSET -7.083611 0.000000 0.000000
                    CHANNELS 3 Zrotation Xrotation Yrotation
                    JOINT RightForeArm
                    {
                        OFFSET -32.044487 0.000000 0.000000
                        CHANNELS 3 Zrotation Xrotation Yrotation
                        JOINT RightHand
                        {
                            OFFSET -22.068741 0.000000 0.000000
                            CHANNELS 3 Zrotation Xrotation Yrotation
                            End Site
                            {
                                OFFSET -12.792312 0.000000 0.000000
                            }
                        }
                    }
                }
            }
        }
    }
    JOINT LeftUpLeg
    {
        OFFSET 8.528208 0.000000 0.000000
        CHANNELS 3 Zrotation Xrotation Yrotation
        JOINT LeftLeg
        {
            OFFSET -0.000000 -31.874865 0.000000
            CHANNELS 3 Zrotation Xrotation Yrotation
            JOINT LeftFoot
            {
                OFFSET -0.000000 -38.221939 0.000000
                CHANNELS 3 Zrotation Xrotation Yrotation
                JOINT LeftToeBase
                {
                    OFFSET -0.000000 -5.543335 12.792312
                    CHANNELS 3 Zrotation Xrotation Yrotation
                    End Site
                    {
                        OFFSET -0.000000 0.000000 3.411283
                    }
                }
            }
        }
    }
    JOINT RightUpLeg
    {
        OFFSET -8.528208 0.000000 0.000000
        CHANNELS 3 Zrotation Xrotation Yrotation
        JOINT RightLeg
        {
            OFFSET -0.000000 -31.874865 0.000000
            CHANNELS 3 Zrotation Xrotation Yrotation
            JOINT RightFoot
            {
                OFFSET -0.000000 -38.221939 0.000000
                CHANNELS 3 Zrotation Xrotation Yrotation
                JOINT RightToeBase
                {
                    OFFSET -0.000000 -5.543335 12.792312
                    CHANNELS 3 Zrotation Xrotation Yrotation
                    End Site
                    {
                        OFFSET -0.000000 0.000000 3.411283
                    }
                }
            }
        }
    }
}
MOTION
Frames:    8
Frame Time:    0.008333
-2.140738    76.357674    30.565334    -2.970070    1.310271    94.122360    3.158422    -8.575435    -2.136298    -7.797360    6.124463    -1.955414    -1.157356    10.973311    11.364630    0.466364    -0.148581    11.948233    21.653978    0.592168    3.842810    -25.771551    3.350399    0.241509    6.750128    1.826663    -7.288425    5.897736    2.090126    -3.237365    -13.761032    2.058439    3.568208    18.646564    3.305846    5.865568    -9.953311    5.251079    5.228229    -1.412757    5.681375    1.890930    -5.618574    -8.024264    -0.259624    3.921384    14.470366    -1.112359    -4.679645    -6.514291    -0.983852    0.000000    0.000000    0.000000    -7.633785    -2.179114    -1.697927    9.956445    10.422354    -1.742348    -5.302059    -8.805178    -15.184888    0.000000    0.000000    0.000000    
-2.130359    76.359383    30.561119    -2.982302    1.317020    94.124702    3.160048    -8.588274    -2.149282    -7.809036    6.124675    -1.968190    -1.131662    10.866691    11.381876    0.452381    0.119966    11.963155    21.657553    0.582545    3.848251    -25.769785    3.614687    0.288962    6.903653    1.812616    -7.350082    5.972418    2.094535    -3.102713    -13.796685    2.061553    3.590719    18.650595    3.236881    5.878846    -9.893553    5.208745    5.188295    -1.439395    5.631659    1.954838    -5.616721    -8.018456    -0.272785    3.897470    14.449216    -1.046141    -4.673171    -6.493486    -1.048458    0.000000    0.000000    0.000000    -7.649033    -2.168374    -1.690844    9.968553    10.400727    -1.756161    -5.328160    -8.801830    -15.182293    0.000000    0.000000    0.000000    
-2.127407    76.358757    30.558056    -2.994541    1.320614    94.123756    3.159837    -8.595218    -2.151009    -7.819238    6.119386    -1.969943    -1.168038    11.002782    11.371075    0.502745    -0.095410    11.960085    21.678631    0.581820    3.858243    -25.779976    3.568790    0.273064    6.948411    1.887640    -7.360163    5.975950    2.175817    -3.047261    -13.807635    2.050483    3.591250    18.653376    3.192009    5.877884    -9.874723    5.148822    5.200856    -1.435982    5.572201    1.942325    -5.620255    -8.029438    -0.290074    3.887952    14.454683    -1.019223    -4.669804    -6.486910    -1.049997    0.000000    0.000000    0.000000    -7.658960    -2.175228    -1.685099    9.973331    10.396216    -1.759530    -5.308779    -8.802790    -15.179036    0.000000    0.000000    0.000000    
-2.123769    76.359299    30.554979    -2.996411    1.321231    94.126350    3.169729    -8.578600    -2.148944    -7.837178    6.089704    -1.969223    -1.192302    11.009150    11.361157    0.568577    -0.048916    11.959965    21.675617    0.586229    3.852391    -25.762426    3.534417    0.254588    6.987567    1.966158    -7.369030    5.904749    2.260936    -3.015558    -13.800753    2.064733    3.571530    18.640221    3.162655    5.890522    -9.842958    5.114865    5.191411    -1.507286    5.534331    1.979619    -5.619655    -8.024111    -0.304449    3.880729    14.449029    -1.054087    -4.663175    -6.489426    -1.010397    0.000000    0.000000    0.000000    -7.662583    -2.176467    -1.687926    9.973017    10.402267    -1.719378    -5.317696    -8.800242    -15.213877    0.000000    0.000000    0.000000    
-2.120331    76.363220    30.550373    -3.004158    1.330390    94.127090    3.180683    -8.579249    -2.150771    -7.881621    6.080807    -1.970122    -1.144015    11.015537    11.361691    0.540312    -0.000059    11.953918    21.711336    0.600361    3.884647    -25.766886    3.579349    0.221841    7.025256    2.003582    -7.399480    5.808082    2.306194    -2.995730    -13.781103    2.067436    3.570332    18.632887    3.170313    5.884473    -9.851563    5.050870    5.216544    -1.574997    5.472550    1.922139    -5.628434    -8.017962    -0.345240    3.864177    14.431787    -1.000615    -4.659964    -6.460108    -1.025264    0.000000    0.000000    0.000000    -7.677334    -2.177259    -1.671172    9.981217    10.388088    -1.765036    -5.269810    -8.794993    -15.188492    0.000000    0.000000    0.000000    
-2.124709    76.364761    30.543661    -3.027884    1.322608    94.089340    3.216410    -8.580473    -2.131516    -7.920256    6.059645    -1.952980    -1.117179    11.012016    11.354453    0.528154    0.052007    11.943213    21.723795    0.610365    3.916805    -25.753050    3.561812    0.175463    7.041749    2.066915    -7.403323    5.743773    2.369775    -3.050621    -13.762545    2.064915    3.567228    18.619318    3.163016    5.883600    -9.849642    5.077308    5.229068    -1.837795    5.496398    1.869545    -5.624437    -8.051973    -0.326893    3.865823    14.445038    -0.967711    -4.686206    -6.449845    -1.043293    0.000000    0.000000    0.000000    -7.679897    -2.231825    -1.640446    9.987305    10.419126    -1.758600    -5.270590    -8.786527    -15.194125    0.000000    0.000000    0.000000    
-2.120203    76.364899    30.541220    -3.027354    1.323098    94.087646    3.235366    -8.582086    -2.130709    -7.963015    6.076694    -1.950196    -1.067064    10.987031    11.352251    0.495081    0.107340    11.933889    21.772219    0.613970    3.948602    -25.763922    3.583078    0.145576    7.051805    2.092829    -7.429150    5.683041    2.396070    -3.120628    -13.742100    2.054991    3.550322    18.608253    3.213835    5.885666    -9.865241    5.100513    5.238026    -1.838805    5.521740    1.826879    -5.626697    -8.041982    -0.340401    3.861041    14.432926    -0.952776    -4.681085    -6.442971    -1.049683    0.000000    0.000000    0.000000    -7.680854    -2.231127    -1.614278    9.990130    10.424218    -1.759885    -5.286484    -8.782988    -15.215929    0.000000    0.000000    0.000000    
-2.109378    76.364899    30.543238    -3.011516    1.330223    94.118736    3.229004    -8.581944    -2.148663    -7.987145    6.108428    -1.964165    -1.051970    10.967601    11.352283    0.509848    0.138111    11.935293    21.813654    0.625253    3.980352    -25.778269    3.593382    0.111993    7.068666    2.073598    -7.444093    5.669386    2.376374    -3.178838    -13.724762    2.075977    3.523178    18.598595    3.222395    5.914697    -9.876857    5.219616    5.230087    -2.192017    5.636008    1.773792    -5.629427    -8.024886    -0.330919    3.856857    14.447352    -0.996848    -4.676004    -6.455888    -1.023057    0.000000    0.000000    0.000000    -7.683077    -2.190717    -1.637778    9.985302    10.411293    -1.738108    -5.272629    -8.802345    -15.243457    0.000000    0.000000    0.000000    
